# xmcd CD database file
#
# Track frame offsets:
#	150
#	14212
#	27400
#	39952
#	53352
#	64150
#	77767
#	91425
#	101815
#	111720
#	126907
#	140157
#	152255
#	163000
#
# Disc length: 2358 seconds
#
# Revision: 0
# Processed by: cddbd v1.5.2PL0 Copyright (c) Steve Scherf et al.
# Submitted via: CDex 1.51
#
DISCID=bf09340e
DTITLE=Multiple Artists - Pioneers of the Jazz Guitar
DYEAR=1900
DGENRE=Jazz
TTITLE0=Lonnie Johnson and Eddie Lang - Handful Of Riffs
TTITLE1=Eddie Lang and Carl Kress - Feeling My Way
TTITLE2=Nick Lucas - Teasing The Frets
TTITLE3=Lonnie Johnson and Eddie Lang - Hot Fingers
TTITLE4=John Cali and Tony Guttuso - Hittin' On All Six
TTITLE5=Nick Lucas - Picking The Guitar
TTITLE6=Lonnie Johnson and Eddie Lang - Have To Change Keys To Play These Blues
TTITLE7=Dick McDonough - Chasing A Buck
TTITLE8=Carl Kress and Dick McDonough - Chicken A La Swing
TTITLE9=John Cali and Tony Guttuso - Satan Takes A Holiday
TTITLE10=Carl Kress and Dick McDonough - Stage Fright
TTITLE11=Dick McDonough - Dick Bernstein Ramble
TTITLE12=Carl Kress and Dick McDonough - Heat Wave
TTITLE13=John Cali and Tony Guttuso - A Study In Brown
EXTD=
EXTT0=
EXTT1=
EXTT2=
EXTT3=
EXTT4=
EXTT5=
EXTT6=
EXTT7=
EXTT8=
EXTT9=
EXTT10=
EXTT11=
EXTT12=
EXTT13=
PLAYORDER=
